{"title":"Alvin and Chipmunks Chipwrecked 2011 R5 READNFO XviD-26K","uid":6969143,"size":661965472,"categoryP":"video","categoryS":"movies","magnet":"?xt=urn:btih:0a519535583e285a09688406b95f13477f892d19&amp;dn=Alvin+and+Chipmunks+Chipwrecked+2011+R5+READNFO+XviD-26K&amp;tr=udp%3A%2F%2Ftracker.openbittorrent.com%3A80&amp;tr=udp%3A%2F%2Fopen.demonii.com%3A1337&amp;tr=udp%3A%2F%2Ftracker.coppersurfer.tk%3A6969&amp;tr=udp%3A%2F%2Fexodus.desync.com%3A6969","seeders":0,"leechers":1,"uploader":"HeroMaster","files":-1,"time":1327029959,"description":"Alvin and the Chipmunks Chipwrecked 2011 R5 READNFO XviD-26K\n\nImdb: &lt;a href=&quot;\nhttp://www.imdb.com/title/tt1615918/&quot; rel=&quot;nofollow&quot; target=&quot;_NEW&quot;&gt;\nhttp://www.imdb.com/title/tt1615918/&lt;/a&gt;\n\nPlot:\nPlaying around while aboard a cruise ship, the Chipmunks and Chipettes accidentally go overboard and end up marooned in a tropical paradise. They discover their new turf is not as deserted as it seems.\n\nSources:\nRUSSIAN VIDEO THNXS!!\nOWN audio as some of you guyz will know...\n\nNotes:\nREADNFO WHY BECAUSE THE AUDIO GIVEN TO USE HAD ADVERTS IN WHICH NEEDED CUTTIN \nTHE AUDIO WAS NOT SO BAD...ENCODED VIDEO AND THE SYNCED THE AUDIO TO THE ENCODED VIDEO SO ENJOY!!!\nPLUS IS IN SYNC BINGO\n\nGreetz:\nXtreme Encode|FYA|ILLUMANTI|CM8|RX|VISION|HDSCENE|NIGHTMAREZ|xTriLL|DTRG|CRYS|REMIXHD\n|BIDA|RX|REFILL|INSPiRAL|SIC|ZOMBIESZ|HOPE\nTo all the people who have helped me you know who you are\n\nAnything to offer email us @: &lt;a class=&quot;__cf_email__&quot; href=&quot;/cdn-cgi/l/email-protection&quot; data-cfemail=&quot;43717528032b36302b2e222a2f6d2e26&quot;&gt;[email&amp;#160;protected]&lt;/a&gt;&lt;script cf-hash='f9e31' type=&quot;text/javascript&quot;&gt;\n/* &lt;![CDATA[ */!function(){try{var t=&quot;currentScript&quot;in document?document.currentScript:function(){for(var t=document.getElementsByTagName(&quot;script&quot;),e=t.length;e--;)if(t[e].getAttribute(&quot;cf-hash&quot;))return t[e]}();if(t&amp;&amp;t.previousSibling){var e,r,n,i,c=t.previousSibling,a=c.getAttribute(&quot;data-cfemail&quot;);if(a){for(e=&quot;&quot;,r=parseInt(a.substr(0,2),16),n=2;a.length-n;n+=2)i=parseInt(a.substr(n,2),16)^r,e+=String.fromCharCode(i);e=document.createTextNode(e),c.parentNode.replaceChild(e,c)}}}catch(u){}}();/* ]]&gt; */&lt;/script&gt;\n\nVideo\nID : 0\nFormat : MPEG-4 Visual\nFormat profile : Advanced Simple@L5\nFormat settings, BVOP : 1\nFormat settings, QPel : No\nFormat settings, GMC : No warppoints\nFormat settings, Matrix : Custom\nCodec ID : XVID\nCodec ID/Hint : XviD\nDuration : 1h 29mn\nBit rate : 755 Kbps\nWidth : 720 pixels\nHeight : 400 pixels\nDisplay aspect ratio : 16:9\nFrame rate : 24.000 fps\nOriginal frame rate : 25.000 fps\nColor space : YUV\nChroma subsampling : 4:2:0\nBit depth : 8 bits\nScan type : Progressive\nCompression mode : Lossy\nBits/(Pixel*Frame) : 0.109\nStream size : 482 MiB (77%)\nWriting library : XviD 64\n\nAudio\nID : 1\nFormat : MPEG Audio\nCodec ID : 55\nCodec ID/Hint : MP3\nDuration : 1h 24mn\nBit rate : 224 Kbps\nChannel(s) : 2 channels\nSampling rate : 44.1 KHz\nCompression mode : Lossy\nStream size : 136 MiB (22%)\nAlignment : Split accross interleaves\nInterleave, duration : 44 ms (1.05 video frame)\nInterleave, preload duration : 500 ms\n\n\nPoster:\n\n &lt;a href=&quot;\nhttp://i.imgur.com/Rp8Ik.jpg&quot; rel=&quot;nofollow&quot; target=&quot;_NEW&quot;&gt;\nhttp://i.imgur.com/Rp8Ik.jpg&lt;/a&gt;\n\n\nScreens:\n\n &lt;a href=&quot;\nhttp://i.imgur.com/01He1.png&quot; rel=&quot;nofollow&quot; target=&quot;_NEW&quot;&gt;\nhttp://i.imgur.com/01He1.png&lt;/a&gt;\n\n &lt;a href=&quot;\nhttp://i.imgur.com/vwKns.png&quot; rel=&quot;nofollow&quot; target=&quot;_NEW&quot;&gt;\nhttp://i.imgur.com/vwKns.png&lt;/a&gt;\n\n &lt;a href=&quot;\nhttp://i.imgur.com/CAOzA.png&quot; rel=&quot;nofollow&quot; target=&quot;_NEW&quot;&gt;\nhttp://i.imgur.com/CAOzA.png&lt;/a&gt;\n\n\nENJOY!","torrent":{"xt":"urn:btih:0a519535583e285a09688406b95f13477f892d19","amp;dn":"Alvin+and+Chipmunks+Chipwrecked+2011+R5+READNFO+XviD-26K","amp;tr":["udp%3A%2F%2Ftracker.openbittorrent.com%3A80","udp%3A%2F%2Fopen.demonii.com%3A1337","udp%3A%2F%2Ftracker.coppersurfer.tk%3A6969","udp%3A%2F%2Fexodus.desync.com%3A6969"],"infoHash":"0a519535583e285a09688406b95f13477f892d19","infoHashBuffer":{"type":"Buffer","data":[10,81,149,53,88,62,40,90,9,104,132,6,185,95,19,71,127,137,45,25]},"announce":[],"urlList":[]}}